# xmcd CD database file
#
# Track frame offsets:
#	150
#	14467
#	29780
#	44802
#	56892
#	71685
#	75995
#	94965
#	117110
#	130335
#	136300
#	147545
#	158722
#	172837
#
# Disc length: 2640 seconds
#
# Revision: 0
# Processed by: cddbd v1.5PL3 Copyright (c) Steve Scherf et al.
# Submitted via: CDex 1.50
#
DISCID=cb0a4e0e
DTITLE=Blue Lou and the Accusations - 60 Watt Bulb
DYEAR=1995
DGENRE=Blues
TTITLE0=Bermuda Onion
TTITLE1=Cryin' Out Loud
TTITLE2=Take It Easy Baby
TTITLE3=Ti-Na-Ni-Na-Nu
TTITLE4=Till the Next Time
TTITLE5=Interlude
TTITLE6=Runnin' Shoes
TTITLE7=60 Watt Bulb
TTITLE8=Yeah It's True
TTITLE9=Interlude Reprise
TTITLE10=Bobby's Blues
TTITLE11=Lawdy Miss Clawdy
TTITLE12=Let's Drive
TTITLE13=Like A Rolling Stone
EXTD=YEAR: 1995
EXTT0=
EXTT1=
EXTT2=
EXTT3=
EXTT4=
EXTT5=
EXTT6=
EXTT7=
EXTT8=
EXTT9=
EXTT10=
EXTT11=
EXTT12=
EXTT13=
PLAYORDER=
